<?xml version="1.0" standalone="no"?>
<!DOCTYPE svg PUBLIC "-//W3C//DTD SVG 20010904//EN"
 "http://www.w3.org/TR/2001/REC-SVG-20010904/DTD/svg10.dtd">
<svg version="1.0" xmlns="http://www.w3.org/2000/svg"
 width="400.000000pt" height="400.000000pt" viewBox="0 0 400.000000 400.000000"
 preserveAspectRatio="xMidYMid meet">
<metadata>
Created by potrace 1.15, written by Peter Selinger 2001-2017
</metadata>
<g transform="translate(0.000000,400.000000) scale(0.100000,-0.100000)"
fill="#000000" stroke="none">
<path d="M0 2000 l0 -2000 2000 0 2000 0 0 2000 0 2000 -2000 0 -2000 0 0
-2000z m1082 854 l257 -89 3 -134 3 -134 179 227 c98 125 184 225 190 223 6
-2 127 -44 268 -93 l257 -89 3 -134 3 -135 179 228 c99 125 184 225 190 223 6
-2 127 -43 269 -92 l257 -89 0 -578 0 -578 170 -2 171 -3 -171 -230 c-122
-164 -176 -229 -188 -227 -14 3 -242 74 -474 148 l-48 16 0 584 0 584 -180 0
-180 0 -2 -669 -3 -668 -140 44 c-77 24 -197 62 -267 84 l-128 40 0 585 0 584
-180 0 -180 0 -2 -669 -3 -669 -185 59 c-102 33 -222 71 -267 85 l-83 25 0
585 0 584 -170 0 c-93 0 -170 2 -170 5 0 15 345 465 354 462 6 -2 127 -44 268
-93z"/>
</g>
</svg>
